<svg  xmlns="http://www.w3.org/2000/svg" width="83.290779mm" height="90.158478mm" viewBox="50 50 295.12481 319.45917" id="svg5492" version="1.1">
 <style type="text/css" >
      <![CDATA[

        .animated { 
    -webkit-animation-duration: 2s; 
    animation-duration: 2s; 
    -webkit-animation-fill-mode: both; 
    animation-fill-mode: both; 
    -webkit-animation-timing-function: ease-in; 
    animation-timing-function: ease-in; 
    animation-iteration-count:infinite; 
    -webkit-animation-iteration-count:infinite; 
    transform-origin: center
} 

@-webkit-keyframes pulse { 
    0% { -webkit-transform: scale(1); fill:#003C6B} 
    25% { -webkit-transform: scale(1.1);fill: #0A83E2 } 
    50% { -webkit-transform: scale(1); fill:#003C6B} 
} 
@keyframes pulse { 
    0% { transform: scale(1);fill:#003C6B } 
    25% { transform: scale(1.1); fill: #0A83E2 } 
    50% { transform: scale(1); fill:#003C6B} 
} 
.pulse { 
    -webkit-animation-name: pulse; 
    animation-name: pulse; 
fill:#003C6B;
}

      ]]>
    </style>
  <g transform="translate(-193.01216,-482.90146)">
    <path d="m 455.42854,614.94221 c -0.40165,-0.3974 -0.79302,-0.77718 -1.17455,-1.14923 -9.50458,-9.26962 -22.14208,-23.31295 -37.57563,-29.24745 -7.55305,-2.90428 -14.52395,-2.95204 -19.86617,-0.44551 -5.34224,2.50655 -8.37769,6.37707 -11.24688,9.37871 -28.21555,29.51814 -58.64978,57.36226 -87.20311,87.48664 -13.64574,14.39657 -18.70021,30.67499 -24.58719,50.89823 -2.8636,9.83714 -4.9509,14.33328 -5.59939,19.78012 -0.32423,2.72341 0.069,5.92162 1.21506,8.51045 1.14607,2.58882 2.66234,4.54765 4.47041,6.81951 4.46883,5.61509 9.39703,10.57687 14.3073,15.2844 4.70753,4.91029 9.66932,9.83847 15.2844,14.30729 2.27184,1.8081 4.23321,3.32685 6.82204,4.47293 2.58881,1.14606 5.78451,1.53677 8.50792,1.21251 5.44683,-0.64846 9.94546,-2.73322 19.78262,-5.59683 20.22326,-5.88698 36.49912,-10.94397 50.89572,-24.58972 30.12437,-28.55334 57.96849,-58.98757 87.48664,-87.20311 3.0016,-2.86922 6.87217,-5.90463 9.37872,-11.24688 2.50653,-5.34223 2.45876,-12.31312 -0.44553,-19.86618 -5.93449,-15.43356 -19.97785,-28.07108 -29.24744,-37.57564 -0.37174,-0.38164 -0.75161,-0.77282 -1.14924,-1.17455 l -0.0279,-0.0279 -0.0279,-0.0279 z m -10.37832,10.38397 c 0.0169,0.0169 0.0362,0.0361 0.0532,0.0532 0.32828,0.33253 0.66391,0.68018 1.02014,1.04546 9.6328,9.87699 22.13552,22.39715 26.05538,32.59138 2.0229,5.26084 1.5729,6.83774 0.85815,8.36111 -0.71475,1.52339 -2.88445,3.67007 -6.23225,6.87014 -29.99251,28.66901 -57.82544,59.08658 -87.44358,87.16008 -11.73293,11.12101 -24.82384,15.30574 -44.8989,21.14958 -10.312,3.00182 -15.78849,4.92247 -17.41328,5.11591 -0.81239,0.0967 -0.42759,0.12116 -0.83282,-0.0582 -0.40523,-0.17941 -1.621,-0.94562 -3.61986,-2.53644 -4.82434,-3.83949 -9.37017,-8.32446 -13.93517,-13.0897 l -0.10855,-0.11422 -0.11422,-0.10855 c -4.76523,-4.56505 -9.25018,-9.11088 -13.0897,-13.93519 -1.59082,-1.99885 -2.35704,-3.21463 -2.53643,-3.61986 -0.17938,-0.40523 -0.15491,-0.0204 -0.0582,-0.83281 0.19344,-1.62481 2.1141,-7.10129 5.11591,-17.4133 5.84383,-20.07503 10.02855,-33.16594 21.14958,-44.89887 28.07351,-29.61813 58.49107,-57.45108 87.16008,-87.44361 3.20007,-3.34778 5.34675,-5.51746 6.87013,-6.23222 1.52337,-0.71477 3.10027,-1.16476 8.3611,0.85813 10.19423,3.91986 22.71439,16.42258 32.59138,26.05536 0.36495,0.35647 0.71546,0.6941 1.048,1.02268 z m -53.06762,2.61237 c -2.76387,-2.76388 -7.21476,-2.76388 -9.97865,1e-5 l -25.2909,25.29089 c -2.76387,2.76389 -2.76135,7.21225 0.003,9.97613 l 50.00212,50.00213 c 2.76389,2.76388 7.20972,2.76387 9.9736,0 l 25.29091,-25.29092 c 2.76387,-2.76387 2.76642,-7.21222 0.003,-9.97611 l -50.00277,-50.00213 z" id="trezor"/>
    <g transform="translate(60,60)" id="eye" >
    <g transform="matrix(-1.5373226,0,0,1.5373226,1039.2196,-678.33232)" >
      <g transform="matrix(0.18475551,0,0,0.18475551,448.74508,666.38109)">
        <path  d="m 279.56681,489.4268 c 17.8996,-5.21096 36.13921,-7.81661 54.7189,-7.81699 18.57927,3.8e-4 36.7056,2.60603 54.37902,7.81699 17.89949,4.9851 33.76002,11.66918 47.58165,20.05226 14.04759,8.15719 27.30246,17.44693 39.76466,27.86925 12.4615,10.42296 23.11071,21.18546 31.94767,32.28755 9.06279,11.10266 16.76648,21.86516 23.11109,32.28754 6.57039,10.42289 11.44184,19.82592 14.61436,28.20912 3.17169,8.15707 4.75775,14.61457 4.75817,19.37253 -4.2e-4,4.75836 -1.58648,11.32916 -4.75817,19.7124 -3.17252,8.15703 -8.04397,17.44677 -14.61436,27.86925 -6.57119,10.42279 -14.38817,21.18529 -23.45095,32.28754 -8.83696,11.1025 -19.48618,21.865 -31.94768,32.28755 -12.46219,10.42273 -25.71707,19.82576 -39.76466,28.20912 -13.82163,8.15691 -29.68216,14.84099 -47.58165,20.05226 -17.67342,4.98478 -35.68646,7.47715 -54.03915,7.47712 -18.35311,3e-5 -36.47943,-2.49234 -54.37903,-7.47712 -17.67331,-5.21127 -33.53385,-11.89535 -47.58164,-20.05226 -13.82143,-8.38336 -26.96301,-17.78639 -39.4248,-28.20912 -12.46191,-10.42255 -23.22441,-21.18505 -32.28754,-32.28755 -8.83662,-11.10225 -16.5403,-21.86475 -23.11109,-32.28754 -6.5708,-10.42248 -11.44225,-19.71222 -14.61436,-27.86925 -3.1721,-8.38324 -4.75815,-14.95404 -4.75817,-19.7124 2e-5,-4.75796 1.58607,-11.21546 4.75817,-19.37253 3.17211,-8.3832 7.93027,-17.78623 14.27449,-28.20912 6.57079,-10.42238 14.27448,-21.18488 23.11109,-32.28754 9.06313,-11.10209 19.82563,-21.86459 32.28754,-32.28755 12.46179,-10.42232 25.60337,-19.71206 39.4248,-27.86925 14.0478,-8.38308 29.90833,-15.06716 47.58164,-20.05226 m 152.60114,82.24827 c -3.39899,-3.3984 -5.4382,-4.75788 -6.11764,-4.07842 -0.68003,0.68002 -0.11359,3.17239 1.69934,7.47711 5.66418,12.91528 8.49642,26.39674 8.49673,40.4444 -3.1e-4,28.09604 -9.96979,52.11342 -29.90847,72.05221 -19.93923,19.93912 -43.95661,29.9086 -72.0522,29.90846 -28.09601,1.4e-4 -52.11339,-9.96934 -72.05221,-29.90846 -19.93909,-19.93879 -29.90857,-43.95617 -29.90846,-72.05221 -1.1e-4,-13.36793 2.60555,-26.28293 7.81698,-38.74505 1.81252,-4.30473 2.26568,-6.7971 1.35948,-7.47712 -0.67985,-0.67945 -2.60577,0.68002 -5.77778,4.07843 -15.86063,15.63423 -33.98696,36.4795 -54.37902,62.53587 -2.94558,3.62549 -4.64492,8.27036 -5.09803,13.93463 -0.45321,5.4381 0.5664,10.19626 3.05882,14.27449 4.98469,8.15704 10.30929,16.20059 15.97383,24.1307 5.66442,7.93043 13.59468,17.22017 23.79083,27.86925 10.19597,10.64935 20.6186,19.8258 31.26794,27.52938 10.87567,7.70379 23.67739,14.38788 38.40518,20.05226 14.95406,5.43799 30.13486,8.15694 45.54244,8.15686 15.40717,8e-5 30.47467,-2.71887 45.20256,-8.15686 14.95397,-5.43781 27.75568,-12.0086 38.40519,-19.71239 10.8755,-7.93016 21.41143,-17.2199 31.6078,-27.86925 10.19574,-10.64908 18.12601,-19.82553 23.79083,-27.52939 5.66413,-7.9301 10.98874,-15.97365 15.97383,-24.13069 2.49202,-4.07823 3.51162,-8.83639 3.05882,-14.27449 -0.45352,-5.66427 -2.03957,-10.42243 -4.75816,-14.2745 -20.39247,-26.50953 -38.85866,-47.92125 -55.39863,-64.23522 m -149.54232,34.66663 -11.89541,12.23528 c -3.39883,3.39892 -5.66462,7.81721 -6.79738,13.25489 -0.90645,5.21154 -0.34,9.85641 1.69935,13.93462 8.38329,15.40759 18.91921,28.54917 31.60781,39.4248 3.62509,2.94569 7.93009,4.19188 12.91501,3.73855 5.21114,-0.45299 9.40285,-2.37891 12.57515,-5.77777 l 11.89541,-11.55554 c 3.17191,-3.3985 4.53138,-7.13706 4.07843,-11.21567 -0.22679,-4.30481 -2.03942,-8.15666 -5.4379,-11.55555 -9.96968,-9.96927 -20.05245,-23.22414 -30.24833,-39.76466 -2.49255,-4.07818 -5.66465,-6.34397 -9.51633,-6.79738 -3.85201,-0.4529 -7.47727,0.90657 -10.87581,4.07843" class="animated pulse"/>
      </g>
    </g>
   </g>
    <!--path id="trezor" d="m 360.50863,535.36218 -19.07624,11.01368 -19.07625,11.01367 0,-22.02735 0,-22.02735 19.07625,11.01368 z" transform="matrix(0.70710678,0.70710678,-0.70710678,0.70710678,448.92688,-39.631446)" /-->
  </g>
</svg>
